<?xml version="1.0" encoding="UTF-8"?> <svg xmlns="http://www.w3.org/2000/svg" width="100" height="100" viewBox="0 0 100 100" fill="none"> <path d="M64.8201 40.86C64.1966 40.8598 63.5789 40.9786 63.0001 41.21V40.74C62.9974 39.3166 62.4308 37.9522 61.4243 36.9457C60.4178 35.9392 59.0535 35.3726 57.6301 35.37H57.3801C56.5135 35.3773 55.662 35.5971 54.9001 36.01C54.6496 34.7994 53.9899 33.7121 53.032 32.9308C52.074 32.1495 50.8762 31.7219 49.6401 31.72C48.7259 31.719 47.8246 31.9349 47.0101 32.35V24.59H56.5101C56.9079 24.59 57.2894 24.4319 57.5707 24.1506C57.852 23.8693 58.0101 23.4878 58.0101 23.09V8.49997C58.0101 8.30215 57.9709 8.10627 57.8949 7.92363C57.8189 7.74098 57.7075 7.57518 57.5672 7.43576C57.4268 7.29634 57.2603 7.18606 57.0772 7.11127C56.894 7.03648 56.6979 6.99865 56.5001 6.99997H25.5001C25.1022 6.99997 24.7207 7.15801 24.4394 7.43931C24.1581 7.72062 24.0001 8.10215 24.0001 8.49997V23.09C24.0001 23.4878 24.1581 23.8693 24.4394 24.1506C24.7207 24.4319 25.1022 24.59 25.5001 24.59H36.0001V61.29L27.2101 54.09C25.4454 52.6135 23.1933 51.8485 20.8944 51.9446C18.5955 52.0408 16.4152 52.9912 14.7801 54.61C14.517 54.8699 14.3593 55.2179 14.3372 55.587C14.315 55.9561 14.43 56.3204 14.6601 56.61L36.0001 83.89V96.5C36.0001 96.8978 36.1581 97.2793 36.4394 97.5606C36.7207 97.8419 37.1022 98 37.5001 98C37.8979 98 38.2794 97.8419 38.5607 97.5606C38.842 97.2793 39.0001 96.8978 39.0001 96.5V83.37C38.9987 83.0362 38.8861 82.7125 38.6801 82.45L17.9201 55.89C19.0407 55.1765 20.3598 54.8393 21.6853 54.9274C23.0109 55.0155 24.2737 55.5244 25.2901 56.38L36.5501 65.61C36.7691 65.7892 37.0344 65.9029 37.3153 65.9378C37.5962 65.9726 37.8812 65.9273 38.1375 65.807C38.3937 65.6868 38.6107 65.4965 38.7633 65.2581C38.9159 65.0197 38.998 64.743 39.0001 64.46V19.61C39.0027 18.9822 39.2532 18.3809 39.6971 17.937C40.141 17.4931 40.7423 17.2426 41.3701 17.24H41.6201C42.2495 17.24 42.8534 17.4893 43.2994 17.9335C43.7455 18.3777 43.9974 18.9805 44.0001 19.61V51.5C44.0001 51.8978 44.1581 52.2793 44.4394 52.5606C44.7207 52.8419 45.1022 53 45.5001 53C45.8979 53 46.2794 52.8419 46.5607 52.5606C46.842 52.2793 47.0001 51.8978 47.0001 51.5V37C47.0658 36.3574 47.3748 35.7643 47.8638 35.3422C48.3528 34.9201 48.9847 34.7011 49.6301 34.73C50.2578 34.7326 50.8591 34.9831 51.303 35.427C51.7469 35.8709 51.9974 36.4722 52.0001 37.1V40.5C52.0001 40.5 52.0001 40.58 52.0001 40.62C52.0001 40.66 52.0001 40.7 52.0001 40.74V51.5C52.0001 51.8978 52.1581 52.2793 52.4394 52.5606C52.7207 52.8419 53.1022 53 53.5001 53C53.8979 53 54.2794 52.8419 54.5607 52.5606C54.842 52.2793 55.0001 51.8978 55.0001 51.5V40.75C55.0027 40.1222 55.2532 39.5209 55.6971 39.077C56.141 38.6331 56.7423 38.3826 57.3701 38.38H57.6201C58.2495 38.38 58.8534 38.6293 59.2994 39.0735C59.7455 39.5177 59.9974 40.1205 60.0001 40.75V51.5C60.0001 51.8978 60.1581 52.2793 60.4394 52.5606C60.7207 52.8419 61.1022 53 61.5001 53C61.8979 53 62.2794 52.8419 62.5607 52.5606C62.842 52.2793 63.0001 51.8978 63.0001 51.5V46C62.9649 45.7374 62.9853 45.4704 63.06 45.2163C63.1347 44.9622 63.262 44.7266 63.4336 44.5248C63.6052 44.323 63.8173 44.1595 64.0562 44.045C64.295 43.9305 64.5553 43.8674 64.8201 43.86C65.3914 43.8599 65.9399 44.0841 66.3476 44.4843C66.7553 44.8845 66.9896 45.4288 67.0001 46V71.89C67.0043 73.9338 66.6035 75.9582 65.8208 77.8463C65.0381 79.7343 63.8891 81.4486 62.4401 82.89C62.2946 83.035 62.1805 83.2084 62.1049 83.3993C62.0292 83.5902 61.9935 83.7947 62.0001 84V95.5C62.0001 95.8978 62.1581 96.2793 62.4394 96.5606C62.7207 96.8419 63.1022 97 63.5001 97C63.8979 97 64.2794 96.8419 64.5607 96.5606C64.842 96.2793 65.0001 95.8978 65.0001 95.5V84.57C68.225 81.137 70.014 76.6001 70.0001 71.89V46C69.9895 44.6331 69.4391 43.3258 68.4688 42.363C67.4985 41.4002 66.187 40.8599 64.8201 40.86V40.86ZM41.6301 14.23H41.3801C39.9532 14.23 38.5848 14.7968 37.5758 15.8057C36.5669 16.8147 36.0001 18.1831 36.0001 19.61V21.61H27.0001V9.99997H55.0001V21.59H47.0001V19.59C46.9948 18.1683 46.427 16.8065 45.4208 15.8022C44.4146 14.7978 43.0517 14.2326 41.6301 14.23V14.23Z" fill="#EE2335"></path> <path d="M79.5 13H64.5C64.1022 13 63.7206 13.158 63.4393 13.4393C63.158 13.7206 63 14.1022 63 14.5C63 14.8978 63.158 15.2794 63.4393 15.5607C63.7206 15.842 64.1022 16 64.5 16H79.5C79.8978 16 80.2794 15.842 80.5607 15.5607C80.842 15.2794 81 14.8978 81 14.5C81 14.1022 80.842 13.7206 80.5607 13.4393C80.2794 13.158 79.8978 13 79.5 13Z" fill="#EE2335"></path> <path d="M64.67 22C64.3857 21.735 64.0096 21.5908 63.621 21.5976C63.2324 21.6045 62.8616 21.7619 62.5868 22.0368C62.312 22.3116 62.1546 22.6823 62.1477 23.071C62.1408 23.4596 62.2851 23.8356 62.55 24.12L75.92 37.52C76.2109 37.734 76.5693 37.8359 76.9293 37.8069C77.2893 37.778 77.6267 37.6201 77.8797 37.3623C78.1326 37.1045 78.284 36.7641 78.3061 36.4036C78.3283 36.0431 78.2196 35.6868 78 35.4L64.67 22Z" fill="#EE2335"></path> <path d="M21.0601 26.94C20.7788 26.6591 20.3976 26.5013 20.0001 26.5013C19.6026 26.5013 19.2213 26.6591 18.9401 26.94L8.94006 36.94C8.79269 37.0773 8.67448 37.2429 8.5925 37.4269C8.51052 37.6109 8.46643 37.8096 8.46288 38.011C8.45933 38.2124 8.49638 38.4124 8.57182 38.5992C8.64726 38.786 8.75955 38.9557 8.90199 39.0981C9.04442 39.2405 9.21409 39.3528 9.40087 39.4283C9.58764 39.5037 9.7877 39.5408 9.98911 39.5372C10.1905 39.5337 10.3891 39.4896 10.5731 39.4076C10.7571 39.3256 10.9227 39.2074 11.0601 39.06L21.0601 29.06C21.341 28.7788 21.4987 28.3975 21.4987 28C21.4987 27.6025 21.341 27.2213 21.0601 26.94Z" fill="#EE2335"></path> </svg> 