<?xml version="1.0" encoding="UTF-8"?> <svg xmlns="http://www.w3.org/2000/svg" width="101" height="101" viewBox="0 0 101 101" fill="none"> <path d="M86.892 21.638H70.136L68.569 15.922C68.458 15.513 68.177 15.171 67.799 14.98C67.421 14.789 66.979 14.766 66.585 14.918L48.733 21.77C48.546 21.686 48.34 21.638 48.122 21.638H26.666C26.259 21.638 25.869 21.804 25.586 22.097L12.364 35.809C12.078 36.034 11.885 36.35 11.818 36.701C11.81 36.737 11.808 36.775 11.803 36.812C11.798 36.86 11.79 36.906 11.789 36.955C11.788 36.974 11.783 36.993 11.783 37.012C11.783 37.013 11.783 37.014 11.783 37.016V83.86C11.783 84.688 12.454 85.36 13.283 85.36H80.2C81.028 85.36 81.7 84.688 81.7 83.86V78.672H86.891C87.719 78.672 88.391 78 88.391 77.172V23.138C88.392 22.309 87.72 21.638 86.892 21.638ZM70.832 35.517H21.292L66.114 18.311L70.832 35.517ZM27.303 24.638H41.262L19.101 33.145L27.303 24.638ZM78.7 82.36H14.783V38.517H78.7V82.36ZM85.392 75.672H81.7V37.017C81.7 36.188 81.028 35.517 80.2 35.517H73.941L70.958 24.638H85.391V75.672H85.392Z" fill="#EE2335"></path> </svg> 