<?xml version="1.0" encoding="UTF-8"?> <svg xmlns="http://www.w3.org/2000/svg" width="101" height="101" viewBox="0 0 101 101" fill="none"> <path d="M18.22 70.702C18.22 75.734 22.314 79.829 27.347 79.829C32.38 79.829 36.474 75.734 36.474 70.702C36.474 65.67 32.38 61.575 27.347 61.575C22.314 61.575 18.22 65.669 18.22 70.702ZM33.474 70.702C33.474 74.08 30.725 76.829 27.347 76.829C23.969 76.829 21.22 74.08 21.22 70.702C21.22 67.324 23.969 64.5749 27.347 64.5749C30.725 64.5749 33.474 67.324 33.474 70.702Z" fill="#EE2335"></path> <path d="M90.2191 36.618C89.6011 36.067 88.6541 36.12 88.1011 36.738L66.3141 61.141L55.0981 49.925C54.5121 49.339 53.5631 49.339 52.9771 49.925C52.3911 50.511 52.3911 51.46 52.9771 52.046L65.3161 64.384C65.5981 64.666 65.9791 64.823 66.3771 64.823C66.3911 64.823 66.4051 64.823 66.4191 64.822C66.8311 64.81 67.2211 64.63 67.4961 64.322L90.3401 38.735C90.8911 38.118 90.8371 37.169 90.2191 36.618Z" fill="#EE2335"></path> <path d="M66.894 68.574C66.065 68.574 65.394 69.246 65.394 70.074V85.001H12.28V15.001H65.394V46.428C65.394 47.256 66.065 47.928 66.894 47.928C67.723 47.928 68.394 47.256 68.394 46.428V13.501C68.394 12.673 67.723 12.001 66.894 12.001H10.78C9.95103 12.001 9.28003 12.673 9.28003 13.501V86.501C9.28003 87.329 9.95103 88.001 10.78 88.001H66.894C67.723 88.001 68.394 87.329 68.394 86.501V70.074C68.394 69.246 67.723 68.574 66.894 68.574Z" fill="#EE2335"></path> <path d="M49.3601 32.226C50.1891 32.226 50.8601 31.554 50.8601 30.726C50.8601 29.898 50.1891 29.226 49.3601 29.226H19.2241C18.3951 29.226 17.7241 29.898 17.7241 30.726C17.7241 31.554 18.3951 32.226 19.2241 32.226H49.3601Z" fill="#EE2335"></path> <path d="M51.2291 44.0699C51.2291 43.2419 50.5581 42.5699 49.7291 42.5699H19.6011C18.7721 42.5699 18.1011 43.2419 18.1011 44.0699C18.1011 44.8979 18.7721 45.5699 19.6011 45.5699H49.7291C50.5581 45.5699 51.2291 44.8979 51.2291 44.0699Z" fill="#EE2335"></path> </svg> 