<?xml version="1.0" encoding="UTF-8"?> <svg xmlns="http://www.w3.org/2000/svg" width="100" height="100" viewBox="0 0 100 100" fill="none"> <path d="M91.5 56H89C88.53 40.61 79.73 27.74 66.61 22H83V24.5C83 24.8978 83.158 25.2794 83.4393 25.5607C83.7206 25.842 84.1022 26 84.5 26C84.8978 26 85.2794 25.842 85.5607 25.5607C85.842 25.2794 86 24.8978 86 24.5V16.5C86 16.1022 85.842 15.7206 85.5607 15.4393C85.2794 15.158 84.8978 15 84.5 15C84.1022 15 83.7206 15.158 83.4393 15.4393C83.158 15.7206 83 16.1022 83 16.5V19H56V16.5C56 16.1022 55.842 15.7206 55.5607 15.4393C55.2794 15.158 54.8978 15 54.5 15H46.5C46.1022 15 45.7206 15.158 45.4393 15.4393C45.158 15.7206 45 16.1022 45 16.5V19H18V16.5C18 16.1022 17.842 15.7206 17.5607 15.4393C17.2794 15.158 16.8978 15 16.5 15C16.1022 15 15.7206 15.158 15.4393 15.4393C15.158 15.7206 15 16.1022 15 16.5V24.5C15 24.8978 15.158 25.2794 15.4393 25.5607C15.7206 25.842 16.1022 26 16.5 26C16.8978 26 17.2794 25.842 17.5607 25.5607C17.842 25.2794 18 24.8978 18 24.5V22H34.34C27.4661 24.9303 21.5965 29.8026 17.4507 36.0195C13.3049 42.2364 11.0631 49.5278 11 57H8.5C8.10218 57 7.72064 57.158 7.43934 57.4393C7.15804 57.7206 7 58.1022 7 58.5V66.5C7 66.8978 7.15804 67.2794 7.43934 67.5607C7.72064 67.842 8.10218 68 8.5 68H16.5C16.8978 68 17.2794 67.842 17.5607 67.5607C17.842 67.2794 18 66.8978 18 66.5V58.5C18 58.1022 17.842 57.7206 17.5607 57.4393C17.2794 57.158 16.8978 57 16.5 57H14C14.1001 48.4295 17.2916 40.1833 22.9873 33.7784C28.683 27.3735 36.4999 23.2406 45 22.14V24.5C45 24.8978 45.158 25.2794 45.4393 25.5607C45.7206 25.842 46.1022 26 46.5 26H49.08L33.51 65.51C33.3785 65.8545 33.3785 66.2355 33.51 66.58L39.09 81.77L39 91.49C38.9987 91.6878 39.0365 91.8839 39.1113 92.0671C39.1861 92.2502 39.2964 92.4168 39.4358 92.5571C39.5752 92.6975 39.741 92.8089 39.9237 92.8849C40.1063 92.9609 40.3022 93 40.5 93H59.5C59.8978 93 60.2794 92.842 60.5607 92.5607C60.842 92.2794 61 91.8978 61 91.5V81.82L67.81 66.67C67.8884 66.4849 67.9288 66.286 67.9288 66.085C67.9288 65.884 67.8884 65.6851 67.81 65.5L51.92 26H54.5C54.8978 26 55.2794 25.842 55.5607 25.5607C55.842 25.2794 56 24.8978 56 24.5V22.14C73 24.47 85.39 38.44 86 56H83.5C83.1022 56 82.7206 56.158 82.4393 56.4393C82.158 56.7206 82 57.1022 82 57.5V65.5C82 65.8978 82.158 66.2794 82.4393 66.5607C82.7206 66.842 83.1022 67 83.5 67H91.5C91.8978 67 92.2794 66.842 92.5607 66.5607C92.842 66.2794 93 65.8978 93 65.5V57.5C93 57.1022 92.842 56.7206 92.5607 56.4393C92.2794 56.158 91.8978 56 91.5 56V56ZM15 65H10V60H15V65ZM42 90L42.06 83H58V90H42ZM58.53 80H41.63L36.51 66.08L49 34.39V61.5C49 61.8978 49.158 62.2794 49.4393 62.5607C49.7206 62.842 50.1022 63 50.5 63C50.8978 63 51.2794 62.842 51.5607 62.5607C51.842 62.2794 52 61.8978 52 61.5V34.24L64.81 66L58.53 80ZM53 23H48V18H53V23ZM90 64H85V59H90V64Z" fill="#EE2335"></path> </svg> 