<?xml version="1.0" encoding="UTF-8"?> <svg xmlns="http://www.w3.org/2000/svg" width="101" height="101" viewBox="0 0 101 101" fill="none"> <path d="M20.6481 20.732L31.7621 25.672C29.5971 28.902 28.4151 32.732 28.4151 36.647C28.4151 47.515 37.2571 56.358 48.1251 56.358C58.9941 56.358 67.8361 47.515 67.8361 36.647C67.8361 32.773 66.6761 28.979 64.5531 25.77L74.9991 21.128V39.83L72.1961 46.14C71.9891 46.604 72.0321 47.141 72.3091 47.567C72.5861 47.993 73.0591 48.25 73.5671 48.25H79.2411C79.7421 48.25 80.2111 48 80.4891 47.583C80.7661 47.166 80.8181 46.638 80.6271 46.175L78.0001 39.851V19.75C78.0001 18.922 77.3281 18.25 76.5001 18.25C76.4311 18.25 76.3661 18.261 76.2991 18.27C76.1791 18.158 76.0461 18.06 75.8911 17.991L48.8771 5.98599C48.4881 5.81399 48.0461 5.81399 47.6581 5.98599L20.6481 17.991C20.1061 18.232 19.7571 18.769 19.7571 19.362C19.7571 19.955 20.1071 20.491 20.6481 20.732ZM64.8371 36.291C64.8371 45.506 57.3401 53.002 48.1261 53.002C38.9121 53.002 31.4161 45.506 31.4161 36.291C31.4161 32.796 32.5311 29.383 34.5571 26.558L47.6591 32.381C47.8531 32.467 48.0611 32.51 48.2681 32.51C48.4751 32.51 48.6831 32.467 48.8771 32.381L61.7651 26.654C63.7471 29.459 64.8371 32.836 64.8371 36.291ZM75.8751 45.25L76.4541 43.948L76.9951 45.25H75.8751ZM48.2681 8.64199L71.5881 19.005L48.2681 29.368L24.9521 19.005L48.2681 8.64199Z" fill="#EE2335"></path> <path d="M48.698 59.552C29.851 59.552 14.516 74.877 14.5 93.721C14.499 94.56 15.161 95.25 16 95.25H81.394C82.233 95.25 82.895 94.561 82.894 93.721C82.878 74.877 67.543 59.552 48.698 59.552ZM17.536 92.25C18.322 75.741 31.998 62.552 48.698 62.552C65.397 62.552 79.073 75.741 79.859 92.25H17.536Z" fill="#EE2335"></path> </svg> 