<?xml version="1.0" encoding="UTF-8" standalone="no"?> <svg xmlns:dc="http://purl.org/dc/elements/1.1/" xmlns:cc="http://creativecommons.org/ns#" xmlns:rdf="http://www.w3.org/1999/02/22-rdf-syntax-ns#" xmlns:svg="http://www.w3.org/2000/svg" xmlns="http://www.w3.org/2000/svg" viewBox="0 0 1227.7867 410.74667" height="410.74667" width="1227.7867" xml:space="preserve" id="svg2"> <metadata id="metadata8"></metadata> <defs id="defs6"></defs> <g transform="matrix(1.3333333,0,0,-1.3333333,0,410.74667)" id="g10"> <g transform="scale(0.1)" id="g12"> <path id="path14" style="fill:#040606;fill-opacity:1;fill-rule:nonzero;stroke:none" d="m 522.945,664.082 c 0,24.066 -4.75,46.859 -14.222,68.379 -9.489,21.5 -22.254,40.289 -38.289,56.348 -16.051,16.023 -34.836,28.8 -56.34,38.293 -21.524,9.457 -44.313,14.218 -68.379,14.218 H 141.137 V 486.852 h 204.578 c 24.066,0 46.855,4.738 68.379,14.218 21.504,9.481 40.289,22.239 56.34,38.289 16.035,16.039 28.8,34.832 38.289,56.352 9.472,21.508 14.222,44.309 14.222,68.371 z m 33.918,0 c 0,-29.184 -5.66,-56.523 -16.961,-82.051 C 528.586,556.488 513.461,534.059 494.504,514.738 475.527,495.422 453.289,480.289 427.766,469.34 402.23,458.41 374.879,452.941 345.715,452.941 H 141.137 V 21.8906 c 0,-5.1093 -2.024,-9.1289 -6.024,-12.03122 -4.011,-2.92969 -8.203,-4.37891 -12.578,-4.37891 -4.379,0 -8.39,1.64062 -12.035,4.92973 -3.656,3.2812 -5.469,7.1211 -5.469,11.5 V 841.32 H 33.918 V 16.4297 C 33.918,11.332 32.0859,7.30859 28.4492,4.37891 24.793,1.46094 20.7891,0.0117188 16.4141,0.0117188 12.0391,0.0117188 8.21094,1.64844 4.92969,4.92969 1.64453,8.21094 0.00390625,12.0508 0.00390625,16.4219 V 857.719 c 0,11.66 5.47265375,17.511 16.41019375,17.511 H 345.715 c 29.164,0 56.515,-5.66 82.051,-16.96 25.523,-11.309 47.761,-26.45 66.738,-45.399 18.957,-18.973 34.082,-41.211 45.398,-66.742 11.301,-25.539 16.961,-52.879 16.961,-82.047"></path> <path id="path16" style="fill:#040606;fill-opacity:1;fill-rule:nonzero;stroke:none" d="m 2213.2,437.621 c 0,55.418 -10.58,107.57 -31.73,156.449 -21.16,48.852 -50.15,91.711 -86.97,128.551 -36.84,36.809 -79.7,65.809 -128.55,86.969 -48.87,21.14 -101.03,31.73 -156.45,31.73 -55.44,0 -107.59,-10.59 -156.44,-31.73 -48.87,-21.16 -91.73,-50.16 -128.55,-86.969 -36.84,-36.84 -65.83,-79.699 -86.97,-128.551 -21.17,-48.879 -31.73,-101.031 -31.73,-156.449 0,-55.43 10.56,-107.59 31.73,-156.449 21.14,-48.871 50.13,-91.723 86.97,-128.543 36.82,-36.84 79.68,-65.8282 128.55,-86.9806 48.85,-21.1562 101,-31.7265 156.44,-31.7265 55.42,0 107.58,10.5703 156.45,31.7265 48.85,21.1524 91.71,50.1406 128.55,86.9806 36.82,36.82 65.81,79.672 86.97,128.543 21.15,48.859 31.73,101.019 31.73,156.449 z m 33.91,0 c 0,-60.551 -11.48,-117.441 -34.46,-170.672 -22.98,-53.25 -54.15,-99.551 -93.54,-138.929 C 2079.73,88.6289 2033.4,57.4492 1980.17,34.4688 1926.92,11.5 1870.03,0.0117188 1809.5,0.0117188 c -60.54,0 -117.43,11.4882812 -170.66,34.4570812 -53.25,22.9804 -99.56,54.1601 -138.95,93.5512 -39.38,39.378 -70.56,85.679 -93.54,138.929 -22.97,53.231 -34.46,110.121 -34.46,170.672 0,60.527 11.49,117.418 34.46,170.668 22.98,53.231 54.16,99.551 93.54,138.941 39.39,39.379 85.7,70.559 138.95,93.54 53.23,22.968 110.12,34.46 170.66,34.46 60.53,0 117.42,-11.492 170.67,-34.46 53.23,-22.981 99.56,-54.161 138.94,-93.54 39.39,-39.39 70.56,-85.71 93.54,-138.941 22.98,-53.25 34.46,-110.141 34.46,-170.668"></path> <path id="path18" style="fill:#040606;fill-opacity:1;fill-rule:nonzero;stroke:none" d="m 2724.11,271.332 c 0,-37.203 -7.11,-72.211 -21.33,-105.023 -14.23,-32.821 -33.56,-61.649 -57.99,-86.4379 -24.44,-24.8008 -53.06,-44.3008 -85.88,-58.5195 -32.82,-14.23051 -67.83,-21.3398812 -105.03,-21.3398812 -35.74,0 -70.39,6.9179712 -103.93,20.7890812 -33.56,13.8476 -62.74,33.5312 -87.52,59.0703 -3.66,3.6406 -5.47,7.2891 -5.47,10.9492 0,3.6289 2,7.4688 6.02,11.4807 3.99,4 8.2,6.019 12.58,6.019 2.9,0 8.75,-3.828 17.5,-11.488 8.75,-7.6523 20.6,-16.2422 35.56,-25.7109 14.94,-9.4805 32.82,-18.0508 53.6,-25.7109 20.79,-7.6602 45.03,-11.4883 72.76,-11.4883 32.82,0 63.62,6.1992 92.44,18.6094 28.81,12.3906 53.97,29.3398 75.49,50.8667 21.51,21.5 38.46,46.672 50.87,75.493 12.4,28.789 18.6,59.609 18.6,92.441 V 858.82 c 0,4.371 1.64,8.211 4.93,11.489 3.28,3.281 7.11,4.921 11.48,4.921 4.38,0 8.02,-1.64 10.94,-4.921 2.91,-3.278 4.38,-7.118 4.38,-11.489 V 271.332"></path> <path id="path20" style="fill:#040606;fill-opacity:1;fill-rule:nonzero;stroke:none" d="m 3522.74,18.6094 c 0,-4.3672 -1.47,-8.5781 -4.38,-12.58987 -2.92,-4.00781 -6.94,-6.0078112 -12.03,-6.0078112 h -536.59 c -5.28,0 -9.63,1.8085912 -13.01,5.4687512 -3.38,3.64062 -5.08,8.00783 -5.08,13.12893 V 858.82 c 0,5.09 1.88,9.11 5.65,12.039 3.76,2.903 7.91,4.371 12.44,4.371 h 536.59 c 4.37,0 8.2,-1.71 11.48,-5.089 3.29,-3.379 4.93,-7.36 4.93,-11.871 0,-4.532 -1.64,-8.5 -4.93,-11.872 -3.28,-3.386 -7.11,-5.078 -11.48,-5.078 H 2985.57 V 503.262 l 2.19,-33.922 -1.1,-75.481 h 409.17 c 11.66,0 17.5,-5.66 17.5,-16.961 0,-4.238 -1.83,-8.128 -5.47,-11.66 -3.65,-3.527 -7.66,-5.289 -12.03,-5.289 H 2985.57 V 37.2109 h 520.76 c 4.37,0 8.2,-2.0195 11.48,-6.0195 3.29,-4.0117 4.93,-8.1992 4.93,-12.582"></path> <path id="path22" style="fill:#040606;fill-opacity:1;fill-rule:nonzero;stroke:none" d="m 4275.42,123.629 c 0,-4.367 -2.19,-8.75 -6.57,-13.117 C 4229.47,73.3086 4184.24,45.582 4133.19,27.3594 4082.13,9.12109 4030.35,0.0117188 3977.84,0.0117188 3917.29,0.0117188 3860.4,11.5 3807.17,34.4688 c -53.25,22.9804 -99.55,54.1601 -138.94,93.5512 -39.38,39.378 -70.56,85.679 -93.54,138.929 -22.97,53.231 -34.46,110.121 -34.46,170.672 0,60.527 11.49,117.418 34.46,170.668 22.98,53.231 54.16,99.551 93.54,138.941 39.39,39.379 85.69,70.559 138.94,93.54 53.23,22.968 110.12,34.46 170.67,34.46 25.52,0 51.59,-2.378 78.23,-7.109 26.61,-4.75 52.51,-11.859 77.67,-21.332 25.16,-9.488 49.23,-20.98 72.2,-34.469 22.98,-13.5 43.94,-29.359 62.91,-47.582 4.38,-4.379 6.57,-8.75 6.57,-13.129 0,-4.379 -2.02,-8.398 -6.02,-12.039 -4.02,-3.648 -8.21,-5.468 -12.58,-5.468 -4.38,0 -8.04,1.457 -10.94,4.378 -21.17,16.032 -41.95,30.442 -62.36,43.211 -20.43,12.75 -41.22,23.52 -62.36,32.27 -21.16,8.75 -43.59,15.488 -67.29,20.25 -23.7,4.73 -49.05,7.109 -76.03,7.109 -55.44,0 -107.59,-10.59 -156.45,-31.73 -48.87,-21.16 -91.72,-50.16 -128.54,-86.969 -36.84,-36.84 -65.83,-79.699 -86.98,-128.551 -21.16,-48.879 -31.72,-101.031 -31.72,-156.449 0,-55.43 10.56,-107.59 31.72,-156.449 21.15,-48.871 50.14,-91.723 86.98,-128.543 36.82,-36.84 79.67,-65.8282 128.54,-86.9806 48.86,-21.1562 101.01,-31.7265 156.45,-31.7265 52.51,0 100.28,8.9297 143.32,26.8086 43.03,17.8593 84.6,43.2105 124.72,76.0395 3.64,3.64 7.66,5.468 12.03,5.468 4.38,0 8.38,-2.027 12.04,-6.019 3.64,-4.02 5.47,-8.199 5.47,-12.59"></path> <path id="path24" style="fill:#ee2335;fill-opacity:1;fill-rule:nonzero;stroke:none" d="m 4927.44,858.27 c 0,-4.532 -1.64,-8.5 -4.92,-11.872 -3.28,-3.386 -7.11,-5.078 -11.49,-5.078 h -538.25 c -4.38,0 -8.21,1.692 -11.49,5.078 -3.28,3.372 -4.93,7.34 -4.93,11.872 0,4.511 1.65,8.492 4.93,11.871 3.28,3.379 7.11,5.089 11.49,5.089 h 538.25 c 4.38,0 8.21,-1.71 11.49,-5.089 3.28,-3.379 4.92,-7.36 4.92,-11.871"></path> <path id="path26" style="fill:#040606;fill-opacity:1;fill-rule:nonzero;stroke:none" d="m 4931.81,752.699 c 0,-4.379 -1.64,-8.39 -4.92,-12.039 -3.28,-3.648 -7.11,-5.469 -11.48,-5.469 H 4661.59 V 16.4219 c 0,-4.3711 -1.78,-8.21096 -5.29,-11.49221 -3.55,-3.28125 -7.43,-4.9179712 -11.66,-4.9179712 -4.24,0 -8.14,1.4492212 -11.66,4.3671912 -3.54,2.91015 -5.3,6.92969 -5.3,12.04299 V 735.191 h -254.9 c -4.38,0 -8.21,1.821 -11.49,5.469 -3.28,3.649 -4.93,7.66 -4.93,12.039 0,4.383 1.45,8.571 4.38,12.582 2.9,4.008 6.92,6.02 12.04,6.02 h 542.63 c 5.1,0 9.11,-2.012 12.03,-6.02 2.91,-4.011 4.37,-8.199 4.37,-12.582"></path> <path id="path28" style="fill:#040606;fill-opacity:1;fill-rule:nonzero;stroke:none" d="m 6320.12,437.621 c 0,55.418 -10.57,107.57 -31.72,156.449 -21.17,48.852 -50.15,91.711 -86.98,128.551 -36.83,36.809 -79.68,65.809 -128.54,86.969 -48.88,21.14 -101.03,31.73 -156.45,31.73 -55.44,0 -107.59,-10.59 -156.44,-31.73 -48.88,-21.16 -91.73,-50.16 -128.55,-86.969 -36.84,-36.84 -65.83,-79.699 -86.98,-128.551 -21.16,-48.879 -31.72,-101.031 -31.72,-156.449 0,-55.43 10.56,-107.59 31.72,-156.449 21.15,-48.871 50.14,-91.723 86.98,-128.543 36.82,-36.84 79.67,-65.8282 128.55,-86.9806 48.85,-21.1562 101,-31.7265 156.44,-31.7265 55.42,0 107.57,10.5703 156.45,31.7265 48.86,21.1524 91.71,50.1406 128.54,86.9806 36.83,36.82 65.81,79.672 86.98,128.543 21.15,48.859 31.72,101.019 31.72,156.449 z m 33.92,0 c 0,-60.551 -11.48,-117.441 -34.46,-170.672 -22.97,-53.25 -54.15,-99.551 -93.54,-138.929 C 6186.66,88.6289 6140.33,57.4492 6087.1,34.4688 6033.85,11.5 5976.96,0.0117188 5916.43,0.0117188 c -60.54,0 -117.44,11.4882812 -170.66,34.4570812 -53.25,22.9804 -99.56,54.1601 -138.95,93.5512 -39.38,39.378 -70.56,85.679 -93.53,138.929 -22.98,53.231 -34.46,110.121 -34.46,170.672 0,60.527 11.48,117.418 34.46,170.668 22.97,53.231 54.15,99.551 93.53,138.941 39.39,39.379 85.7,70.559 138.95,93.54 53.22,22.968 110.12,34.46 170.66,34.46 60.53,0 117.42,-11.492 170.67,-34.46 53.23,-22.981 99.56,-54.161 138.94,-93.54 39.39,-39.39 70.57,-85.71 93.54,-138.941 22.98,-53.25 34.46,-110.141 34.46,-170.668"></path> <path id="path30" style="fill:#040606;fill-opacity:1;fill-rule:nonzero;stroke:none" d="m 7299.29,16.4219 c 0,-5.1133 -1.82,-9.13284 -5.46,-12.04299 -3.67,-2.91797 -7.67,-4.3671912 -12.05,-4.3671912 -4.37,0 -8.2,1.6367212 -11.48,4.9179712 -3.28,3.28125 -4.92,7.12111 -4.92,11.49221 V 858.82 c 0,4.371 1.64,8.211 4.92,11.489 3.28,3.281 7.11,4.921 11.48,4.921 4.38,0 8.38,-1.468 12.05,-4.371 3.64,-2.929 5.46,-6.949 5.46,-12.039 V 16.4219"></path> <path id="path32" style="fill:#040606;fill-opacity:1;fill-rule:nonzero;stroke:none" d="m 8341.87,437.621 c 0,55.418 -10.57,107.57 -31.73,156.449 -21.16,48.852 -50.14,91.711 -86.97,128.551 -36.84,36.809 -79.69,65.809 -128.54,86.969 -48.88,21.14 -101.03,31.73 -156.45,31.73 -55.44,0 -107.59,-10.59 -156.44,-31.73 -48.88,-21.16 -91.73,-50.16 -128.55,-86.969 -36.85,-36.84 -65.83,-79.699 -86.98,-128.551 -21.16,-48.879 -31.72,-101.031 -31.72,-156.449 0,-55.43 10.56,-107.59 31.72,-156.449 21.15,-48.871 50.13,-91.723 86.98,-128.543 36.82,-36.84 79.67,-65.8282 128.55,-86.9806 48.85,-21.1562 101,-31.7265 156.44,-31.7265 55.42,0 107.57,10.5703 156.45,31.7265 48.85,21.1524 91.7,50.1406 128.54,86.9806 36.83,36.82 65.81,79.672 86.97,128.543 21.16,48.859 31.73,101.019 31.73,156.449 z m 33.92,0 c 0,-60.551 -11.49,-117.441 -34.46,-170.672 -22.97,-53.25 -54.16,-99.551 -93.54,-138.929 C 8208.41,88.6289 8162.08,57.4492 8108.84,34.4688 8055.6,11.5 7998.71,0.0117188 7938.18,0.0117188 c -60.55,0 -117.44,11.4882812 -170.66,34.4570812 -53.26,22.9804 -99.56,54.1601 -138.95,93.5512 -39.38,39.378 -70.57,85.679 -93.53,138.929 -22.98,53.231 -34.47,110.121 -34.47,170.672 0,60.527 11.49,117.418 34.47,170.668 22.96,53.231 54.15,99.551 93.53,138.941 39.39,39.379 85.69,70.559 138.95,93.54 53.22,22.968 110.11,34.46 170.66,34.46 60.53,0 117.42,-11.492 170.66,-34.46 53.24,-22.981 99.57,-54.161 138.95,-93.54 39.38,-39.39 70.57,-85.71 93.54,-138.941 22.97,-53.25 34.46,-110.141 34.46,-170.668"></path> <path id="path34" style="fill:#040606;fill-opacity:1;fill-rule:nonzero;stroke:none" d="m 9074.88,16.4219 c 0,-4.3711 -1.84,-8.21096 -5.47,-11.49221 -3.66,-3.28125 -7.67,-4.9179712 -12.04,-4.9179712 -5.84,0 -10.21,2.1875012 -13.13,6.5585912 L 8605.54,622.512 V 17.5195 c 0,-4.3789 -1.77,-8.39841 -5.3,-12.03903 -3.53,-3.66016 -7.42,-5.4687512 -11.66,-5.4687512 -11.32,0 -16.95,5.8281212 -16.95,17.5077812 V 677.219 c 0,3.64 1.74,7.273 5.26,10.929 3.53,3.653 7.04,5.473 10.57,5.473 4.92,0 9.48,-2.562 13.71,-7.652 5.09,-7.309 15.67,-22.071 31.72,-44.309 16.03,-22.262 35.73,-49.422 59.08,-81.5 23.33,-32.109 48.86,-67.672 76.58,-106.672 27.71,-39.027 55.79,-78.226 84.24,-117.609 28.45,-39.391 55.97,-77.859 82.6,-115.418 26.62,-37.582 50.32,-71.121 71.11,-100.66 20.79,-29.5315 37.36,-53.6018 49.78,-72.1994 12.39,-18.6016 18.6,-28.9922 18.6,-31.1797"></path> <path id="path36" style="fill:#040606;fill-opacity:1;fill-rule:nonzero;stroke:none" d="m 9208.35,17.5195 c 0,-11.67966 -5.84,-17.5077812 -17.5,-17.5077812 -5.85,0 -10.23,2.1875012 -13.14,6.5585912 L 8576,843.5 c -1.47,1.461 -2.18,4.742 -2.18,9.852 0,11.66 5.26,17.507 15.79,17.507 4.21,0 8.42,-2.57 12.65,-7.668 L 9174.43,68.9297 V 858.82 c 0,4.371 1.64,8.211 4.92,11.489 3.29,3.281 7.12,4.921 11.5,4.921 4.37,0 8.2,-1.64 11.48,-4.921 3.28,-3.278 4.92,-7.118 4.92,-11.489 l 1.1,-841.3005"></path> <path id="path38" style="fill:#040606;fill-opacity:1;fill-rule:nonzero;stroke:none" d="m 710.035,875.109 h 239.738 c 148.467,0 268.947,-118.039 268.947,-264.078 0,-149.679 -109.53,-271.371 -268.947,-271.371 H 930.301 L 1167.6,0.128906 h -46.24 L 860.941,376.16 h 82.743 c 126.566,0 230.006,103.442 230.006,230 0,127.781 -102.22,232.43 -230.006,232.43 H 751.414 V 0.128906 H 710.035 V 875.109"></path> <path id="path40" style="fill:#040606;fill-opacity:1;fill-rule:nonzero;stroke:none" d="m 6544.97,875.109 h 239.73 c 148.47,0 268.95,-118.039 268.95,-264.078 0,-149.679 -109.53,-271.371 -268.95,-271.371 h -19.47 L 7002.54,0.128906 H 6956.3 L 6695.87,376.16 h 82.75 c 126.56,0 230,103.442 230,230 0,127.781 -102.23,232.43 -230,232.43 H 6586.34 V 0.128906 h -41.37 V 875.109"></path> <path id="path42" style="fill:#ee2335;fill-opacity:1;fill-rule:nonzero;stroke:none" d="M 33.918,295.48 H 33.6641 V 875.23 H 17.0352 C 5.67969,875.23 0.00390625,869.379 0.00390625,857.719 V 16.4219 C 0.00390625,12.0508 1.70313,8.21094 5.11328,4.92969 8.51953,1.64844 12.4922,0.0117188 17.0352,0.0117188 c 4.539,0 8.6992,1.4492212 12.4921,4.3671912 2.0079,1.5625 3.4454,3.4414 4.3907,5.60937 V 295.48"></path> <path id="path44" style="fill:#ee2335;fill-opacity:1;fill-rule:nonzero;stroke:none" d="m 9056.5,47.6016 c -12.41,18.5976 -28.98,42.6679 -49.77,72.1994 -20.8,29.539 -44.5,63.078 -71.12,100.66 -26.63,37.559 -54.15,76.027 -82.6,115.418 -28.44,39.383 -56.53,78.582 -84.23,117.609 -27.73,39 -53.26,74.563 -76.59,106.672 -23.35,32.078 -43.04,59.238 -59.08,81.5 -16.04,22.238 -26.63,37 -31.72,44.309 -2.07,2.961 -7.23,7.679 -13.71,7.652 -6.85,-0.039 -11.56,-5.699 -12.32,-6.629 -6.59,-7.941 -3.27,-20.703 -3.61,-19.492 -0.33,1.199 22.68,-30 34.02,-44.988 L 9044.47,6.57031 c 2.91,-4.37109 7.28,-6.5585912 13.12,-6.5585912 4.38,0 8.38,1.6367212 12.05,4.9179712 3.63,3.28125 5.46,7.12111 5.46,11.49221 0,2.1875 -6.21,12.5781 -18.6,31.1797"></path> <path id="path46" style="fill:#ee2335;fill-opacity:1;fill-rule:nonzero;stroke:none" d="m 9208.35,17.5195 c 0,-11.67966 -5.84,-17.5077812 -17.5,-17.5077812 -5.85,0 -10.23,2.1875012 -13.14,6.5585912 L 8576,843.5 c -1.47,1.461 -2.18,4.742 -2.18,9.852 0,11.66 5.26,17.507 15.79,17.507 4.21,0 8.42,-2.57 12.65,-7.668 l 572.17,-794.2613 33.92,-51.4102"></path> <path id="path48" style="fill:#d61c2e;fill-opacity:1;fill-rule:nonzero;stroke:none" d="m 677.281,2364.93 716.179,229.55 2378.06,-651.91 v -460 L 677.281,2364.93"></path> <path id="path50" style="fill:#ee2335;fill-opacity:1;fill-rule:nonzero;stroke:none" d="m 5432.11,2389.88 c -553.53,-149.11 -1107.06,-298.2 -1660.59,-447.31 0,-153.33 0,-306.67 0,-460 792.26,225.92 1584.51,451.84 2376.77,677.77 -238.73,76.51 -477.45,153.02 -716.18,229.54"></path> <path id="path52" style="fill:#d61c2e;fill-opacity:1;fill-rule:nonzero;stroke:none" d="m 8524.96,2198.2 -716.17,-229.54 -2378.07,651.89 v 460.01 L 8524.96,2198.2"></path> <path id="path54" style="fill:#ee2335;fill-opacity:1;fill-rule:nonzero;stroke:none" d="m 3770.13,2173.25 c 553.53,149.1 1107.06,298.2 1660.59,447.3 0,153.34 0,306.68 0,460.01 -792.26,-225.92 -1584.51,-451.85 -2376.76,-677.76 238.72,-76.52 477.44,-153.03 716.17,-229.55"></path> <path id="path56" style="fill:#d61c2e;fill-opacity:1;fill-rule:nonzero;stroke:none" d="m 5432.11,2389.88 v -424.74 l 716.18,195.2 z"></path> <path id="path58" style="fill:#ee2335;fill-opacity:1;fill-rule:nonzero;stroke:none" d="m 1393.45,2594.47 c 0,-144.58 0,-289.17 0,-433.76 -238.72,68.07 -477.442,136.15 -716.169,204.22 l 716.169,229.54"></path> </g> </g> </svg> 