<?xml version="1.0" encoding="UTF-8"?> <svg xmlns="http://www.w3.org/2000/svg" width="101" height="101" viewBox="0 0 101 101" fill="none"> <path d="M68.1519 62.067C67.6359 61.793 66.8069 61.353 66.6099 61.272C62.0189 59.051 56.8719 57.804 51.4399 57.804C32.1589 57.804 16.4759 73.498 16.4929 92.782C16.4939 93.598 17.1769 94.25 17.9929 94.25H84.8889C85.7049 94.25 86.3879 93.598 86.3889 92.782C86.3989 79.548 79.0159 68.008 68.1519 62.067ZM35.9999 77.25H64.9999V91.25H35.9999V77.25ZM64.9999 63.99V74.25H35.9999V64.75C35.9999 64.707 35.9909 64.667 35.9869 64.625C40.4929 62.191 45.6439 60.804 51.1149 60.804C56.0899 60.804 60.7989 61.954 64.9999 63.99ZM32.9999 66.459V91.25H19.2029C19.6809 80.977 25.0389 71.962 32.9999 66.459ZM67.9999 91.25V65.65C76.6379 71.051 82.5269 80.456 83.0279 91.25H67.9999Z" fill="#EE2335"></path> <path d="M30.325 35.25H30.801C31.548 45.675 40.243 53.934 50.852 53.934C61.465 53.934 70.164 45.675 70.912 35.25H71.388C73.44 35.25 75.047 33.209 75.047 30.603C75.047 28.631 74.125 26.987 72.788 26.302C72.184 17.022 65.838 9.14201 56.851 6.60601C55.887 4.22101 53.551 2.53101 50.825 2.53101C48.091 2.53101 45.75 4.23101 44.791 6.62701C35.843 9.18601 29.529 17.048 28.927 26.302C27.59 26.987 26.668 28.632 26.668 30.603C26.666 33.209 28.274 35.25 30.325 35.25ZM50.852 50.934C41.898 50.934 34.54 44.02 33.801 35.25H67.911C67.173 44.02 59.811 50.934 50.852 50.934ZM71.394 32.25H30.319C30.166 32.227 29.659 31.666 29.659 30.602C29.659 29.927 29.862 29.478 30.051 29.218C30.15 29.239 30.252 29.25 30.358 29.25H71.355C71.46 29.25 71.563 29.239 71.661 29.218C71.85 29.479 72.053 29.927 72.053 30.602C72.053 31.666 71.546 32.226 71.394 32.25ZM69.466 26.25H57V9.89901C63.997 12.419 68.885 18.792 69.466 26.25ZM54 9.11001V26.25H47V9.03001C47 6.73201 49.228 4.94401 51.635 5.71001C53.08 6.17001 54 7.59401 54 9.11001ZM44 9.92401V26.25H31.6C32.179 18.816 37.039 12.461 44 9.92401Z" fill="#EE2335"></path> </svg> 