<?xml version="1.0" encoding="UTF-8"?> <svg xmlns="http://www.w3.org/2000/svg" width="100" height="100" viewBox="0 0 100 100" fill="none"> <path d="M37.23 32.37L34.78 46.67C34.729 46.951 34.7594 47.2406 34.8674 47.505C34.9754 47.7693 35.1567 47.9973 35.3898 48.1622C35.623 48.3271 35.8983 48.422 36.1836 48.4358C36.4688 48.4496 36.752 48.3816 37 48.24L49.8 41.49L62.64 48.24C62.8877 48.3711 63.1672 48.4302 63.4468 48.4105C63.7265 48.3909 63.995 48.2933 64.2219 48.1288C64.4489 47.9643 64.6252 47.7395 64.7309 47.4799C64.8366 47.2203 64.8675 46.9362 64.82 46.66L62.37 32.36L72.75 22.24C72.9508 22.0448 73.093 21.7972 73.1604 21.5254C73.2277 21.2535 73.2177 20.9682 73.1313 20.7018C73.0449 20.4354 72.8857 20.1984 72.6716 20.0179C72.4575 19.8373 72.1971 19.7202 71.92 19.68L57.56 17.6L51.14 4.59998C51.0161 4.34905 50.8245 4.13778 50.5868 3.99005C50.3491 3.84233 50.0748 3.76404 49.795 3.76404C49.5151 3.76404 49.2408 3.84233 49.0032 3.99005C48.7655 4.13778 48.5739 4.34905 48.45 4.59998L42 17.6L27.68 19.68C27.4028 19.7202 27.1424 19.8373 26.9283 20.0179C26.7143 20.1984 26.555 20.4354 26.4686 20.7018C26.3822 20.9682 26.3722 21.2535 26.4396 21.5254C26.507 21.7972 26.6491 22.0448 26.85 22.24L37.23 32.37ZM43.23 20.45C43.4707 20.4152 43.6993 20.3223 43.8962 20.1795C44.093 20.0366 44.2522 19.848 44.36 19.63L49.78 8.62998L55.2 19.63C55.3077 19.848 55.4669 20.0366 55.6637 20.1795C55.8606 20.3223 56.0892 20.4152 56.33 20.45L68.46 22.21L59.7 30.77C59.5257 30.9401 59.3955 31.1501 59.3206 31.3818C59.2457 31.6136 59.2283 31.86 59.27 32.1L61.34 44.18L50.5 38.47C50.2842 38.3561 50.0439 38.2966 49.8 38.2966C49.556 38.2966 49.3157 38.3561 49.1 38.47L38.25 44.17L40.32 32.1C40.3616 31.86 40.3443 31.6136 40.2694 31.3818C40.1944 31.1501 40.0642 30.9401 39.89 30.77L31.11 22.22L43.23 20.45Z" fill="#EE2335"></path> <path d="M84.9999 45C85.0128 44.887 85.0128 44.7729 84.9999 44.66V44.59C84.9742 44.5038 84.9407 44.4201 84.8999 44.34L84.8499 44.25C84.8057 44.1792 84.7555 44.1123 84.6999 44.05L84.6399 43.98C84.5589 43.8963 84.4682 43.8225 84.3699 43.76V43.76L71.5999 35.85C71.2618 35.6378 70.8532 35.5686 70.4641 35.6577C70.0749 35.7468 69.7371 35.9868 69.5249 36.325C69.3128 36.6631 69.2436 37.0717 69.3327 37.4608C69.4218 37.85 69.6618 38.1878 69.9999 38.4L80.41 44.86L40.7399 64.7L19.1799 45.39L29.4699 40.5C29.8293 40.3289 30.106 40.0221 30.2392 39.647C30.3723 39.2719 30.351 38.8593 30.1799 38.5C30.0089 38.1406 29.7021 37.8639 29.327 37.7307C28.9519 37.5976 28.5393 37.6189 28.1799 37.79L15.8599 43.65C15.7522 43.7042 15.6515 43.7714 15.5599 43.85L15.4899 43.91C15.4115 43.9822 15.3411 44.0626 15.2799 44.15V44.21C15.2126 44.3161 15.1588 44.4304 15.1199 44.55V44.63C15.1085 44.7363 15.1085 44.8436 15.1199 44.95C15.1199 44.95 15.1199 44.95 15.1199 45V75.2C15.1191 75.4187 15.1661 75.635 15.2576 75.8336C15.3492 76.0323 15.4831 76.2085 15.6499 76.35L39.6499 97.65C39.7705 97.7469 39.9055 97.8245 40.0499 97.88H40.1099C40.2613 97.9318 40.42 97.9589 40.5799 97.96C40.6863 97.9714 40.7936 97.9714 40.8999 97.96H40.9699L41.1999 97.88L84.1999 76.58C84.4496 76.4485 84.6571 76.2492 84.7986 76.0051C84.9401 75.761 85.0099 75.4819 84.9999 75.2V45ZM17.9999 48.36L38.9999 67.17V93.27L17.9999 74.5V48.36ZM81.9999 74.25L41.9999 94.13V67.43L81.9999 47.43V74.25Z" fill="#EE2335"></path> </svg> 