<?xml version="1.0" encoding="UTF-8"?> <svg xmlns="http://www.w3.org/2000/svg" width="1047" height="214" viewBox="0 0 1047 214" fill="none"> <path d="M0.304199 95.4228L95.7947 64.8161L412.869 151.737V213.071L0.304199 95.4228Z" fill="#D61C2E"></path> <path d="M634.281 92.0961C560.477 111.977 486.673 131.856 412.869 151.737C412.869 172.181 412.869 192.627 412.869 213.071C518.504 182.948 624.137 152.825 729.772 122.701C697.941 112.5 666.112 102.299 634.281 92.0961" fill="#EE2335"></path> <path d="M1046.66 117.653L951.172 148.259L634.096 61.3401V0.00546131L1046.66 117.653Z" fill="#D61C2E"></path> <path d="M412.684 120.98C486.488 101.1 560.292 81.22 634.096 61.34C634.096 40.8946 634.096 20.4493 634.096 0.0053132C528.461 30.128 422.828 60.252 317.195 90.3733C349.024 100.576 380.853 110.777 412.684 120.98Z" fill="#EE2335"></path> <path d="M634.281 92.096V148.728L729.772 122.701L634.281 92.096Z" fill="#D61C2E"></path> <path d="M95.7934 64.8174C95.7934 84.0948 95.7934 103.373 95.7934 122.652C63.9641 113.576 32.1345 104.499 0.304199 95.4228L95.7934 64.8174Z" fill="#EE2335"></path> </svg> 