<?xml version="1.0" encoding="UTF-8"?> <svg xmlns="http://www.w3.org/2000/svg" width="182" height="182" viewBox="0 0 182 182" fill="none"> <circle cx="91" cy="91" r="89" fill="white" stroke="#EE2335" stroke-width="4"></circle> <path d="M88.5209 87.5339H79.3889C76.9889 87.5339 75.0359 85.5819 75.0359 83.1829C75.0359 81.2469 76.0969 77.0299 77.0329 73.3089C77.8239 70.1659 78.5709 67.1969 78.8499 65.1129C79.1499 62.8919 78.4549 60.6859 76.8939 58.9009C75.0769 56.8219 72.3259 55.5809 69.5349 55.5809C66.7409 55.5809 63.9869 56.8229 62.1699 58.9029C60.6099 60.6879 59.9179 62.8939 60.2179 65.1119C60.5029 67.2329 61.2979 70.2529 62.1379 73.4499C63.1029 77.1189 64.1969 81.2779 64.1969 83.1829C64.1969 85.5819 62.2439 87.5339 59.8439 87.5339H50.5439C49.7149 87.5339 49.0439 88.2049 49.0439 89.0339V126.863C49.0439 127.691 49.7149 128.363 50.5439 128.363H88.5199C89.3489 128.363 90.0199 127.691 90.0199 126.863V89.0339C90.0209 88.2059 89.3499 87.5339 88.5209 87.5339ZM59.8449 90.5339C63.8999 90.5339 67.1979 87.2359 67.1979 83.1829C67.1979 80.8899 66.1499 76.9049 65.0399 72.6859C64.2589 69.7179 63.4519 66.6479 63.1909 64.7099C62.9569 62.9809 63.7349 61.6709 64.4289 60.8769C65.6659 59.4609 67.6219 58.5809 69.5339 58.5809C71.4429 58.5809 73.3979 59.4599 74.6349 60.8749C75.3299 61.6699 76.1099 62.9809 75.8759 64.7119C75.6189 66.6289 74.8579 69.6529 74.1229 72.5769C73.0489 76.8449 72.0359 80.8749 72.0359 83.1829C72.0359 87.2359 75.3339 90.5339 79.3889 90.5339H87.0209V98.5449H52.0449V90.5339H59.8449V90.5339ZM52.0449 125.363V101.545H87.0209V125.363H52.0449Z" fill="#EE2335"></path> <path d="M74.204 64.817C74.204 62.242 72.109 60.147 69.534 60.147C66.959 60.147 64.864 62.242 64.864 64.817C64.864 67.392 66.959 69.487 69.534 69.487C72.109 69.487 74.204 67.392 74.204 64.817ZM67.864 64.817C67.864 63.896 68.613 63.147 69.534 63.147C70.455 63.147 71.204 63.896 71.204 64.817C71.204 65.738 70.455 66.487 69.534 66.487C68.613 66.487 67.864 65.738 67.864 64.817Z" fill="#EE2335"></path> <path d="M132.357 66.59L124.21 60.451C123.95 60.255 123.634 60.149 123.308 60.149H117.14V55.137C117.14 54.308 116.468 53.637 115.64 53.637H104.714C103.886 53.637 103.214 54.308 103.214 55.137V60.149H88.8989C88.0699 60.149 87.3989 60.82 87.3989 61.649V73.342C87.3989 74.171 88.0699 74.842 88.8989 74.842H103.214V126.863C103.214 127.691 103.886 128.363 104.714 128.363H115.64C116.468 128.363 117.14 127.691 117.14 126.863V74.842H131.455C132.283 74.842 132.955 74.171 132.955 73.342V67.788C132.955 67.317 132.734 66.874 132.357 66.59ZM106.214 56.637H114.14V60.149H106.214V56.637ZM114.14 125.363H106.214V74.842H114.14V125.363ZM129.955 71.842H90.3989V63.149H122.806L129.955 68.536V71.842Z" fill="#EE2335"></path> </svg> 